HIERARCHY
ROOT Hips
{
  OFFSET 56.6767 101.735 -125.393
  CHANNELS 6 Xposition Yposition Zposition Zrotation Xrotation Yrotation
  JOINT RightUpLeg
  {
    OFFSET -8.9458 -8.66707 0.101652
    CHANNELS 3 Zrotation Xrotation Yrotation
    JOINT RightLeg
    {
      OFFSET 0 -44.4227 1.3727
      CHANNELS 3 Zrotation Xrotation Yrotation
      JOINT RightFoot
      {
        OFFSET 0.253549 -42.0924 -1.46059
        CHANNELS 3 Zrotation Xrotation Yrotation
        JOINT RightToes
        {
          OFFSET 0.04 -4.41509 8.4991
          CHANNELS 3 Zrotation Xrotation Yrotation
          End Site
          {
            OFFSET -0.08 -0.137448 9.77979
          }
        }
      }
    }
  }
  JOINT Spine
  {
    OFFSET 0 11.8905 0
    CHANNELS 3 Zrotation Xrotation Yrotation
    JOINT Spine1
    {
      OFFSET 0 25.6574 0.127663
      CHANNELS 3 Zrotation Xrotation Yrotation
      JOINT HEad
      {
        OFFSET 0 8.73416 0.011341
        CHANNELS 3 Zrotation Xrotation Yrotation
        End Site
        {
          OFFSET -0.29 12.7742 2.51395
        }
      }
      JOINT LeftShoulder1
      {
        OFFSET 8.99 -0.362252 -0.22
        CHANNELS 3 Zrotation Xrotation Yrotation
        JOINT LeftArm
        {
          OFFSET 10.2827 -0.00338 0.322123
          CHANNELS 3 Zrotation Xrotation Yrotation
          JOINT LeftForeArm
          {
            OFFSET 32.7669 0.099144 -1.42434
            CHANNELS 3 Zrotation Xrotation Yrotation
            JOINT LeftHand
            {
              OFFSET 27.5643 0.085362 1.02216
              CHANNELS 3 Zrotation Xrotation Yrotation
              End Site
              {
                OFFSET 16.7443 -0.6 1.50291
              }
            }
          }
        }
      }
      JOINT RightShoulder
      {
        OFFSET -8.99 -0.362252 -0.22
        CHANNELS 3 Zrotation Xrotation Yrotation
        JOINT RightArm
        {
          OFFSET -10.2827 -0.00338 0.322123
          CHANNELS 3 Zrotation Xrotation Yrotation
          JOINT RightForeArm
          {
            OFFSET -32.8971 0.099144 -1.42434
            CHANNELS 3 Zrotation Xrotation Yrotation
            JOINT RightHand
            {
              OFFSET -27.4921 0.085362 1.02216
              CHANNELS 3 Zrotation Xrotation Yrotation
              End Site
              {
                OFFSET -16.6312 -0.6 1.50291
              }
            }
          }
        }
      }
    }
  }
  JOINT LeftUpLeg
  {
    OFFSET 8.9458 -8.66707 0.101652
    CHANNELS 3 Zrotation Xrotation Yrotation
    JOINT LeftLeg
    {
      OFFSET 0 -44.4227 1.3727
      CHANNELS 3 Zrotation Xrotation Yrotation
      JOINT LeftFoot
      {
        OFFSET -0.253549 -42.0924 -1.46059
        CHANNELS 3 Zrotation Xrotation Yrotation
        JOINT LeftToes
        {
          OFFSET -0.04 -4.41509 8.4991
          CHANNELS 3 Zrotation Xrotation Yrotation
          End Site
          {
            OFFSET 0.08 -0.047448 9.77979
          }
        }
      }
    }
  }
}
MOTION
Frames:	21
Frame Time:	0.0166667
56.6767 101.735 -125.393 -1.15235 0.0951601 -0.834706 3.41268 -19.0214 -0.0322436 1.02401 18.5233 -10.2959 -0.0168254 2.009 -0.178704 0.0462048 0.000533964 0.662642 1.23939 4.01347 -0.0381021 0.144736 -0.108825 0.201541 2.01983 0.125613 -0.217895 2.48481e-017 -1.59028e-015 9.93923e-017 -85.5973 -23.4277 -7.82374 -21.3742 21.775 -48.1712 0.368473 9.90896 -0.00117926 0.184544 0.131986 -1.9708 86.3799 -39.9353 -1.55748 14.0835 14.3989 16.679 -0.369625 9.91382 0.00119886 2.24955 3.01253 -0.296925 -3.72547 35.3443 11.4847 -10.1167 -4.45501 -0.0820412 -3.01835e-012 2.95155e-012 -1.23565e-012 
56.1993 101.745 -123.802 -1.65591 0.0969581 -0.703847 4.00264 -18.2877 -1.08308 1.14469 19.3083 -9.31207 -0.144884 0.426807 -0.181221 -0.0639454 0.367357 0.787968 1.65742 4.10058 -0.00150932 0.702956 -0.219602 0.206931 1.88604 0.017656 -0.450648 -3.04389e-016 -7.95139e-016 -0 -85.7975 -24.1778 -6.93555 -21.4261 21.5024 -46.9326 0.368473 9.90896 -0.00117926 0.00681035 0.140785 -1.8388 86.8455 -39.8362 -0.914773 13.8976 14.4043 16.9552 -0.369625 9.91382 0.00119886 3.49686 0.959021 0.0296783 -3.85852 39.5904 10.3975 -9.96399 -0.776576 0.236151 1.00361 6.02406 -1.62047 
55.7346 101.763 -122.245 -2.09954 0.112223 -0.528071 4.56054 -17.5284 -2.01631 1.23281 19.951 -8.47464 -0.246465 -0.964481 -0.184696 -0.0997126 0.471156 0.828359 2.0612 4.18136 0.0239611 1.19147 -0.299414 0.210735 1.79083 -0.117245 -0.654572 3.72721e-017 -7.95139e-016 -0 -86.0308 -24.9659 -6.17232 -21.4758 21.1999 -45.5878 0.368473 9.90896 -0.00117926 -0.184031 0.152609 -1.66207 87.3079 -39.6544 -0.274117 13.7865 14.4378 17.3701 -0.369625 9.91382 0.00119886 4.60674 -1.17888 0.412203 -3.74709 43.8193 9.27018 -9.77211 2.43412 0.505152 0.842138 10.5544 -1.56674 
55.3027 101.789 -120.78 -2.41467 0.168494 -0.205211 5.0089 -16.7254 -2.70181 1.27738 20.2213 -8.02052 -0.258832 -1.79843 -0.190783 0.102463 -0.275297 0.596944 2.46025 4.25341 0.0168532 1.51656 -0.295995 0.210312 1.81698 -0.318208 -0.788577 4.96962e-017 0 1.2424e-017 -86.4164 -25.8428 -5.79204 -21.5465 20.8446 -43.921 0.368473 9.90896 -0.00117926 -0.385732 0.172666 -1.37919 87.7137 -39.2744 0.303095 13.8929 14.5557 18.237 -0.369625 9.91382 0.00119886 5.35703 -3.57736 1.06167 -3.27902 48.1486 7.68399 -9.42451 4.53819 0.654061 -4.06614 10.1963 4.00537 
54.8945 101.848 -119.362 -2.56893 0.237025 0.137902 5.31286 -15.8616 -3.1043 1.35008 20.2491 -7.87119 -0.263756 -2.41075 -0.197575 0.343144 -1.16246 0.314647 2.76977 4.29857 -0.00300874 1.68042 -0.24229 0.207235 1.87413 -0.575666 -0.860644 -5.2181e-016 -7.95139e-016 7.45443e-017 -86.8603 -26.8263 -5.57138 -21.6045 20.4604 -42.1434 0.368473 9.90896 -0.00117926 -0.657797 0.197421 -0.99556 88.1999 -38.7258 0.985927 14.0771 14.693 19.1736 -0.369625 9.91382 0.00119886 5.82886 -6.04321 1.57955 -2.61626 52.0907 6.94601 -8.87172 5.58189 0.699656 -9.44948 9.00775 10.5131 
54.4998 101.99 -117.955 -2.45319 0.294861 0.413902 5.35398 -14.8647 -3.03914 1.54296 20.0108 -8.12712 -0.341923 -3.01587 -0.203366 0.485685 -1.59897 0.152975 2.84998 4.2832 -0.0203258 1.60854 -0.153257 0.202098 1.90762 -0.91473 -0.90312 1.49089e-016 -7.95139e-016 -0 -87.3166 -27.9758 -5.40191 -21.6309 20.0878 -40.3638 0.368473 9.90896 -0.00117926 -1.06939 0.22618 -0.494816 88.8607 -37.9445 1.90934 14.2987 14.8172 19.8606 -0.369625 9.91382 0.00119886 5.88175 -8.44661 1.53003 -2.6417 55.1227 9.54395 -7.95399 5.07005 0.602135 -12.8534 11.3036 14.3511 
54.1427 102.14 -116.583 -2.22605 0.35217 0.606545 5.27687 -13.8756 -2.83108 1.73073 19.7332 -8.47332 -0.433799 -3.61125 -0.209431 0.557323 -1.81701 0.0726361 2.87482 4.25131 -0.0429443 1.43734 -0.0305879 0.195194 1.89573 -1.27053 -0.801801 1.11816e-016 0 -9.93923e-017 -87.7224 -29.2108 -5.18194 -21.6521 19.7324 -38.663 0.368473 9.90896 -0.00117926 -1.58948 0.255591 0.119185 89.7263 -37.079 3.08781 14.4264 14.912 20.4175 -0.369625 9.91382 0.00119886 5.68708 -10.7823 1.21013 -3.49736 57.3259 13.3945 -6.94643 3.98776 0.460052 -15.4033 13.3376 16.9748 
53.8565 102.233 -115.267 -2.02338 0.423279 0.665893 5.2144 -13.0402 -2.82474 1.80915 19.6588 -8.53741 -0.50241 -4.28238 -0.216582 0.540847 -1.78747 0.0902421 2.99871 4.24662 -0.0756234 1.29172 0.109866 0.186984 1.81018 -1.58274 -0.390712 -5.59082e-017 7.95139e-016 -0 -87.9687 -30.4493 -4.75907 -21.717 19.4359 -37.1474 0.368473 9.90896 -0.00117926 -2.18124 0.286659 0.879761 90.8746 -36.3027 4.63791 14.2654 14.9376 20.8256 -0.369625 9.91382 0.00119886 5.43168 -13.0214 0.671969 -4.72985 58.7933 16.4121 -6.01031 3.4069 0.373812 -16.4446 12.1121 18.2324 
53.603 102.294 -113.98 -1.80353 0.47279 0.605648 5.16301 -12.2728 -2.75231 1.82986 19.7176 -8.59853 -0.561038 -4.97969 -0.224574 0.422495 -1.70294 0.209752 3.14055 4.23643 -0.112338 1.13173 0.295632 0.177553 1.62638 -1.86274 0.142891 9.25591e-016 0 -1.98785e-016 -88.0926 -31.7538 -4.14696 -21.7756 19.1813 -35.8417 0.368473 9.90896 -0.00117926 -2.93066 0.305565 1.69176 92.2779 -35.4579 6.4019 13.9684 14.9307 21.1784 -0.369625 9.91382 0.00119886 5.05539 -15.0986 0.216189 -5.83969 59.5554 18.5737 -5.31304 2.5723 0.296624 -16.6811 10.0929 18.7413 
53.3486 102.326 -112.705 -1.56827 0.461765 0.43055 5.16445 -11.5425 -2.39332 1.80466 19.9519 -8.91753 -0.588446 -5.72503 -0.233639 0.0789992 -1.6776 0.54417 3.27577 4.19677 -0.153823 0.941551 0.572824 0.166741 1.27076 -2.09799 0.630614 -1.07468e-015 0 -1.49089e-016 -88.0835 -33.1614 -3.31703 -21.7611 18.9497 -34.8004 0.368473 9.90896 -0.00117926 -3.92969 0.29805 2.43562 93.9967 -34.425 8.3007 13.6056 14.9059 21.5362 -0.369625 9.91382 0.00119886 4.62042 -16.9462 0.285579 -6.07443 59.7412 18.8068 -5.24024 0.851022 0.211085 -17.0517 9.10087 19.2617 
53.1119 102.337 -111.435 -1.32474 0.415102 0.117548 5.17708 -10.8269 -1.95945 1.74926 20.2651 -9.17774 -0.651174 -6.38973 -0.243141 -0.177535 -1.91742 0.783017 3.38898 4.14507 -0.184546 0.773711 0.869837 0.155755 0.846266 -2.30004 1.18146 -5.32584e-016 1.59028e-015 -6.98852e-018 -87.942 -34.6588 -2.22238 -21.7693 18.7861 -34.0442 0.368473 9.90896 -0.00117926 -5.11969 0.266644 3.21784 95.8191 -33.29 10.205 13.2233 14.8848 21.9805 -0.369625 9.91382 0.00119886 4.16918 -18.547 0.560754 -6.01333 59.2175 18.4102 -5.31185 -1.05172 0.130636 -16.9608 7.77987 19.2981 
52.9066 102.336 -110.148 -1.07596 0.329362 -0.37747 5.18182 -10.0746 -1.56791 1.6807 20.5719 -9.10629 -0.83748 -6.79289 -0.252482 0.0390641 -2.85674 0.527725 3.45571 4.09007 -0.186084 0.691396 1.13646 0.145583 0.442207 -2.49904 1.90181 -1.73937e-016 0 -0 -87.6485 -36.2541 -0.754043 -21.8936 18.7424 -33.6624 0.368473 9.90896 -0.00117926 -6.55098 0.204825 4.12728 97.6434 -32.0912 11.9773 12.8792 14.8897 22.6162 -0.369625 9.91382 0.00119886 3.70507 -19.8248 0.862432 -6.16835 57.7922 18.5369 -5.05415 -2.53516 0.065588 -15.768 4.84634 18.27 
52.7132 102.325 -108.869 -0.838365 0.25059 -0.986568 5.1828 -9.34542 -1.27556 1.58029 20.8881 -8.82313 -1.06049 -7.11314 -0.261635 0.359237 -3.92508 0.154926 3.47898 4.03387 -0.167865 0.646586 1.35462 0.136709 0.029605 -2.62619 2.63121 3.72721e-016 -7.95139e-016 3.97569e-016 -87.2011 -37.8982 0.967575 -22.0691 18.7671 -33.5048 0.368473 9.90896 -0.00117926 -7.98704 0.125665 5.09717 99.2885 -30.8874 13.618 12.6041 14.9262 23.4343 -0.369625 9.91382 0.00119886 3.27464 -20.888 1.18122 -6.35601 55.6492 18.9099 -4.81717 -3.91878 0.0065542 -14.7198 1.83937 17.3363 
52.5051 102.314 -107.623 -0.618665 0.238755 -1.67308 5.18898 -8.70647 -1.22386 1.40885 21.1963 -8.32888 -1.27058 -7.44734 -0.270211 0.490553 -4.69576 -0.0145789 3.43397 3.98119 -0.134616 0.58666 1.48842 0.130133 -0.398887 -2.59212 3.20727 1.49089e-016 -7.95139e-016 -0 -86.6057 -39.5708 2.84488 -22.2648 18.8181 -33.4418 0.368473 9.90896 -0.00117926 -9.1562 0.0422341 6.10687 100.525 -29.7499 15.0883 12.4538 15.0099 24.507 -0.369625 9.91382 0.00119886 2.93914 -21.8455 1.4889 -6.50121 52.8995 19.6372 -4.87831 -5.44688 -0.0578928 -14.9515 0.427365 17.7471 
52.3162 102.292 -106.38 -0.440138 0.248631 -2.38736 5.19121 -8.08619 -1.27226 1.24788 21.5059 -7.70906 -1.44456 -7.85992 -0.278819 0.664741 -5.17142 -0.209345 3.3797 3.93298 -0.0820067 0.58848 1.54119 0.125302 -0.836734 -2.49058 3.74126 -1.98785e-016 0 -0 -85.8868 -41.2028 4.88691 -22.452 18.8967 -33.5059 0.368473 9.90896 -0.00117926 -10.2175 -0.0519509 7.10685 101.452 -28.6794 16.3931 12.4011 15.1252 25.697 -0.369625 9.91382 0.00119886 2.63461 -22.6223 1.65439 -6.5627 49.5803 20.5661 -4.98728 -6.74427 -0.111097 -15.2774 -0.767927 18.2883 
52.1779 102.243 -105.119 -0.345116 0.244444 -3.06876 5.1912 -7.42513 -1.27948 1.18967 21.8492 -7.04709 -1.52195 -8.57869 -0.289444 1.19024 -4.85663 -0.702833 3.38829 3.89108 -0.00281507 0.745792 1.49868 0.121487 -1.29356 -2.35924 4.31648 6.4605e-016 2.38542e-015 3.97569e-016 -85.1233 -42.7143 7.05419 -22.5892 18.9931 -33.7023 0.368473 9.90896 -0.00117926 -11.2935 -0.167581 8.07683 102.085 -27.7057 17.4971 12.4505 15.2713 26.9114 -0.369625 9.91382 0.00119886 2.30787 -23.1682 1.50966 -6.52045 45.7547 21.712 -4.91687 -7.38165 -0.132062 -14.6946 -3.10994 17.8954 
52.0697 102.189 -103.843 -0.287803 0.257916 -3.71363 5.14414 -6.75269 -1.39307 1.17021 22.143 -6.35269 -1.5653 -9.21039 -0.297688 1.53867 -4.81845 -1.03915 3.39558 3.8576 0.0895558 0.955395 1.37771 0.120223 -1.71539 -2.27606 4.85504 -1.3418e-015 -7.95139e-016 -3.97569e-016 -84.2377 -44.1265 9.34332 -22.6801 19.095 -33.9835 0.368473 9.90896 -0.00117926 -12.223 -0.278967 8.90857 102.452 -26.8056 18.4789 12.5699 15.4308 28.088 -0.369625 9.91382 0.00119886 1.96231 -23.5177 1.12632 -6.32573 41.4785 22.8099 -4.86674 -7.76561 -0.143938 -14.1987 -5.1063 17.5359 
51.9832 102.147 -102.546 -0.220551 0.317148 -4.28598 4.9738 -6.10449 -1.79581 1.15821 22.3255 -5.63874 -1.63136 -9.30883 -0.29818 1.03522 -6.46184 -0.65681 3.36633 3.8407 0.178908 1.10755 1.18685 0.122683 -2.02705 -2.39745 5.29363 2.48481e-016 -7.95139e-016 -0 -83.1662 -45.4684 11.754 -22.6894 19.1945 -34.3652 0.368473 9.90896 -0.00117926 -12.8489 -0.359864 9.41905 102.552 -25.9196 19.4217 12.7531 15.5962 29.12 -0.369625 9.91382 0.00119886 1.57225 -23.6886 0.440515 -6.11974 36.7642 23.7474 -4.98566 -8.26522 -0.168839 -14.6526 -5.3529 18.115 
51.9136 102.118 -101.231 -0.187728 0.397002 -4.82211 4.79751 -5.4022 -2.23846 1.16822 22.3658 -4.9864 -1.67572 -9.2607 -0.295394 0.420401 -8.27931 -0.146856 3.28568 3.82419 0.280866 1.31578 0.936675 0.129212 -2.28683 -2.52488 5.67233 3.97569e-016 0 -0 -81.9684 -46.6435 14.2192 -22.6956 19.2708 -34.6617 0.368473 9.90896 -0.00117926 -13.2914 -0.424249 9.81213 102.463 -25.1781 20.2585 12.9417 15.7529 30.0449 -0.369625 9.91382 0.00119886 1.20495 -23.673 -0.2962 -5.73866 31.8104 24.4359 -5.2058 -8.56383 -0.189694 -15.124 -4.8405 18.607 
51.857 102.118 -99.8891 -0.218614 0.494873 -5.33065 4.68528 -4.56065 -2.56262 1.21585 22.1659 -4.46649 -1.67213 -9.36197 -0.292857 0.246737 -8.96586 -0.0137497 3.10791 3.78834 0.412987 1.68198 0.605479 0.142085 -2.52234 -2.47943 5.99167 -3.97569e-016 -2.38542e-015 7.95139e-016 -80.7024 -47.5426 16.6564 -22.7816 19.3001 -34.6649 0.368473 9.90896 -0.00117926 -13.5821 -0.472694 10.2443 102.227 -24.7676 20.9204 13.0578 15.8688 30.7919 -0.369625 9.91382 0.00119886 0.912386 -23.4547 -0.890281 -5.14589 26.6688 24.7518 -5.57224 -8.32221 -0.192154 -14.5548 -4.18038 17.8217 
51.8023 102.12 -98.5368 -0.313629 0.571392 -5.85855 4.66917 -3.63717 -2.68312 1.27376 21.8708 -4.12636 -1.6232 -9.43872 -0.288188 0.181587 -9.31954 0.0237888 2.89094 3.75201 0.553235 2.13156 0.298643 0.156692 -2.76957 -2.36024 6.306 -1.2921e-015 -7.95139e-016 -7.95139e-016 -79.4477 -48.2748 19.0007 -22.9064 19.2929 -34.4566 0.368473 9.90896 -0.00117926 -13.8238 -0.518292 10.6746 101.983 -24.4531 21.5018 13.159 15.9897 31.5764 -0.369625 9.91382 0.00119886 0.726896 -23.0919 -1.22641 -4.43509 21.6737 24.753 -5.89349 -7.97729 -0.189928 -14.1469 -3.09975 17.2279 
